<mxfile host="app.diagrams.net" modified="2024-05-22T06:15:42.323Z" agent="Mozilla/5.0 (Windows NT 10.0; Win64; x64) AppleWebKit/537.36 (KHTML, like Gecko) Chrome/125.0.0.0 Safari/537.36" etag="tNA_2PNIzmEzTUkqEvGX" version="24.4.4" type="device">
  <diagram name="read_data" id="RiGRVqC5kk6REZ8GSzCc">
    <mxGraphModel dx="1207" dy="651" grid="1" gridSize="10" guides="1" tooltips="1" connect="1" arrows="1" fold="1" page="1" pageScale="1" pageWidth="827" pageHeight="1169" math="0" shadow="0">
      <root>
        <mxCell id="0" />
        <mxCell id="1" parent="0" />
        <mxCell id="8qZtXnJF7RahZSj52U_G-1" value="Baca Data" style="text;strokeColor=none;align=center;fillColor=none;html=1;verticalAlign=middle;whiteSpace=wrap;rounded=0;fontStyle=1;fontSize=18;" parent="1" vertex="1">
          <mxGeometry x="5" y="10" width="110" height="30" as="geometry" />
        </mxCell>
        <mxCell id="Lju-gav2dLlKnLAhShjA-3" style="edgeStyle=orthogonalEdgeStyle;rounded=0;orthogonalLoop=1;jettySize=auto;html=1;exitX=0.5;exitY=1;exitDx=0;exitDy=0;entryX=0.5;entryY=0;entryDx=0;entryDy=0;" parent="1" source="-fuLBVae2BvsCfeYTGC9-1" target="Lju-gav2dLlKnLAhShjA-1" edge="1">
          <mxGeometry relative="1" as="geometry" />
        </mxCell>
        <mxCell id="-fuLBVae2BvsCfeYTGC9-1" value="&lt;font style=&quot;font-size: 12px;&quot;&gt;A&lt;/font&gt;" style="verticalLabelPosition=middle;verticalAlign=middle;html=1;shape=offPageConnector;rounded=0;size=0.5833333333333334;whiteSpace=wrap;textShadow=0;labelBorderColor=none;labelBackgroundColor=none;fontColor=default;labelPosition=center;align=center;" parent="1" vertex="1">
          <mxGeometry x="383.24" y="70" width="60" height="60" as="geometry" />
        </mxCell>
        <mxCell id="jiXzvsAna_qlPHVtCiz5-2" style="edgeStyle=orthogonalEdgeStyle;rounded=0;orthogonalLoop=1;jettySize=auto;html=1;exitX=0.5;exitY=1;exitDx=0;exitDy=0;entryX=0.5;entryY=0;entryDx=0;entryDy=0;" parent="1" source="Lju-gav2dLlKnLAhShjA-1" target="jiXzvsAna_qlPHVtCiz5-1" edge="1">
          <mxGeometry relative="1" as="geometry" />
        </mxCell>
        <mxCell id="Lju-gav2dLlKnLAhShjA-1" value="Menampilkan data karyawan" style="shape=parallelogram;html=1;strokeWidth=2;perimeter=parallelogramPerimeter;whiteSpace=wrap;rounded=1;arcSize=12;size=0.17250000000000001;" parent="1" vertex="1">
          <mxGeometry x="312.75" y="240" width="202.5" height="70" as="geometry" />
        </mxCell>
        <mxCell id="Ea3zwVsCN1duvdT9tbKu-2" style="edgeStyle=orthogonalEdgeStyle;rounded=0;orthogonalLoop=1;jettySize=auto;html=1;exitX=0;exitY=0.5;exitDx=0;exitDy=0;entryX=0.5;entryY=1;entryDx=0;entryDy=0;" parent="1" source="jiXzvsAna_qlPHVtCiz5-1" target="Ea3zwVsCN1duvdT9tbKu-1" edge="1">
          <mxGeometry relative="1" as="geometry" />
        </mxCell>
        <mxCell id="jiXzvsAna_qlPHVtCiz5-1" value="Lanjut ke menu utama atau keluar?" style="rhombus;whiteSpace=wrap;html=1;" parent="1" vertex="1">
          <mxGeometry x="340.52000000000004" y="428" width="145.44" height="140" as="geometry" />
        </mxCell>
        <mxCell id="E7-83Grx6-k1d3Tg4cFf-1" value="Selesai" style="strokeWidth=2;html=1;shape=mxgraph.flowchart.terminator;whiteSpace=wrap;" parent="1" vertex="1">
          <mxGeometry x="363.24" y="730" width="100" height="60" as="geometry" />
        </mxCell>
        <mxCell id="E7-83Grx6-k1d3Tg4cFf-2" style="edgeStyle=orthogonalEdgeStyle;rounded=0;orthogonalLoop=1;jettySize=auto;html=1;exitX=0.5;exitY=1;exitDx=0;exitDy=0;entryX=0.5;entryY=0;entryDx=0;entryDy=0;entryPerimeter=0;" parent="1" source="jiXzvsAna_qlPHVtCiz5-1" target="E7-83Grx6-k1d3Tg4cFf-1" edge="1">
          <mxGeometry relative="1" as="geometry" />
        </mxCell>
        <mxCell id="Ea3zwVsCN1duvdT9tbKu-1" value="&lt;font style=&quot;font-size: 12px;&quot;&gt;G&lt;/font&gt;" style="verticalLabelPosition=middle;verticalAlign=middle;html=1;shape=offPageConnector;rounded=0;size=0.5;whiteSpace=wrap;textShadow=0;labelBorderColor=none;labelBackgroundColor=none;fontColor=default;labelPosition=center;align=center;" parent="1" vertex="1">
          <mxGeometry x="100" y="260" width="60" height="60" as="geometry" />
        </mxCell>
        <mxCell id="YAZWlvxKxAy2A5at4Lfk-1" value="Ya" style="text;html=1;align=center;verticalAlign=middle;resizable=0;points=[];autosize=1;strokeColor=none;fillColor=none;" parent="1" vertex="1">
          <mxGeometry x="230" y="470" width="40" height="30" as="geometry" />
        </mxCell>
        <mxCell id="YAZWlvxKxAy2A5at4Lfk-2" value="Tidak" style="text;html=1;align=center;verticalAlign=middle;resizable=0;points=[];autosize=1;strokeColor=none;fillColor=none;" parent="1" vertex="1">
          <mxGeometry x="414" y="630" width="50" height="30" as="geometry" />
        </mxCell>
      </root>
    </mxGraphModel>
  </diagram>
</mxfile>
